# xmcd CD database file
#
# Track frame offsets:
#	150
#	22590
#	53173
#	57470
#	83358
#	107369
#	139238
#	148107
#	164261
#	196987
#	222284
#	260572
#	277089
#
# Disc length: 3882 seconds
#
# Revision: 0
# Processed by: cddbd v1.4PL0 Copyright (c) Steve Scherf et al.
# Submitted via: CDex 1.51
#
DISCID=b60f280d
DTITLE=Kid Creole and the Coconuts - Annie, I'm Not Your Daddy
DYEAR=1900
DGENRE=Rhythmic Soul
TTITLE0=Stool Pigeon
TTITLE1=Don't Take My Coconuts
TTITLE2=Midsummer Madness
TTITLE3=(No More) Casual Sex
TTITLE4=My Male Curiosity
TTITLE5=Medley: If You Wanna Be Happy/Love Girls
TTITLE6=The Good Ol' Days
TTITLE7=I'm A Wonderful Thing Baby
TTITLE8=Medley: Thank You For Letting Me Be Myself Again/Play That Funky Music
TTITLE9=Annie I'm Not Your Daddy
TTITLE10=It's Automatic
TTITLE11=December '63 (Oh! What A Night)
TTITLE12=Love Train
EXTD=
EXTT0=
EXTT1=
EXTT2=
EXTT3=
EXTT4=
EXTT5=
EXTT6=
EXTT7=
EXTT8=
EXTT9=
EXTT10=
EXTT11=
EXTT12=
PLAYORDER=
